<svg width="482" height="260" viewBox="0 0 482 260" fill="none" xmlns="http://www.w3.org/2000/svg">
<path d="M75.1885 17.4062C97.6529 6.22376 123.054 0.571059 148.779 1.02539L150.005 1.05176C167.862 1.50216 182.309 4.52289 196.696 10.3662C202.211 12.6051 208.705 10.5071 211.443 5.13281C213.091 1.89852 217.851 2.32818 218.893 5.80176L235.835 62.332L177.618 76.8574C174.488 77.638 172.023 74.2043 173.751 71.502C177.174 66.1487 174.862 58.8242 168.507 57.252C161.945 55.6285 155.159 54.7113 148.293 54.5381C133.062 54.1545 117.993 57.4466 104.681 64.0732C91.3678 70.7007 80.2987 80.4199 72.6572 92.2139C65.0148 104.009 61.089 117.438 61.3066 131.076C61.5247 144.714 65.8779 158.036 73.8926 169.632C81.9064 181.226 93.28 190.659 106.798 196.945C120.315 203.232 135.482 206.141 150.694 205.371C161.078 204.846 171.224 202.619 180.637 198.838C187.25 196.181 195.05 198.393 198.221 204.541L198.384 204.858C194.191 212.324 191.8 220.935 191.8 230.1C191.8 237.186 193.23 243.941 195.817 250.093C183.373 255.344 171.069 257.934 154.127 258.792C128.015 260.114 101.992 255.118 78.8164 244.341C55.641 233.563 36.1831 217.409 22.4922 197.602C8.80251 177.795 1.38571 155.071 1.01465 131.833C0.643679 108.596 7.33193 85.693 20.3828 65.5498C33.4347 45.4051 52.3678 28.7655 75.1885 17.4062ZM292.739 17.4053C315.56 6.04523 341.413 0.392434 367.557 1.05176C389.092 1.59472 405.678 5.87631 423.196 14.3555C429.091 17.2088 431.13 24.5182 427.878 30.2959L413.828 55.2539C410.581 61.0232 403.191 63.0655 396.829 60.6289C387.059 56.887 376.55 54.8082 365.845 54.5381C350.614 54.1539 335.545 57.4466 322.232 64.0732C308.919 70.7 297.851 80.419 290.209 92.2129C282.805 103.64 278.889 116.599 278.85 129.797L278.857 131.075C279.075 144.713 283.429 158.035 291.443 169.631C299.457 181.225 310.832 190.659 324.35 196.945C337.867 203.231 353.034 206.141 368.246 205.371C378.63 204.846 388.776 202.619 398.188 198.838C404.492 196.306 411.879 198.198 415.299 203.707C410.694 211.433 408.049 220.46 408.049 230.1C408.049 237.363 409.551 244.278 412.262 250.553C400.192 255.496 388.119 257.959 371.678 258.791C345.566 260.113 319.544 255.118 296.368 244.34L294.69 243.547C294.379 243.397 294.07 243.244 293.76 243.093C294.837 238.94 295.411 234.586 295.411 230.1C295.411 201.545 272.215 178.399 243.605 178.399C238.891 178.399 234.323 179.028 229.98 180.206C222.735 164.94 218.833 148.52 218.566 131.833C218.195 108.596 224.884 85.6932 237.935 65.5498C250.986 45.4047 269.919 28.7651 292.739 17.4053ZM243.605 209C255.286 209 264.751 218.448 264.751 230.1C264.751 241.751 255.286 251.199 243.605 251.199C231.925 251.199 222.46 241.751 222.46 230.1C222.46 218.448 231.925 209 243.605 209ZM459.854 209C471.535 209 481 218.449 481 230.1C481 241.751 471.535 251.199 459.854 251.199C448.174 251.199 438.708 241.751 438.708 230.1C438.708 218.448 448.174 209 459.854 209Z" fill="url(#paint0_linear_1190_1040)" stroke="#0F00A6" stroke-width="2"/>
<defs>
<linearGradient id="paint0_linear_1190_1040" x1="241" y1="0" x2="241" y2="260" gradientUnits="userSpaceOnUse">
<stop stop-color="#F9D8C6"/>
<stop offset="1" stop-color="#CFCBFA"/>
</linearGradient>
</defs>
</svg>
